<?xml version="1.0" encoding="iso-8859-1"?>
<!-- Generator: Adobe Illustrator 19.0.0, SVG Export Plug-In . SVG Version: 6.00 Build 0)  -->
<svg version="1.1" id="Layer_1" xmlns="http://www.w3.org/2000/svg" xmlns:xlink="http://www.w3.org/1999/xlink" x="0px" y="0px"
	 viewBox="0 0 512 512" style="enable-background:new 0 0 512 512;" xml:space="preserve">
<path style="fill:#7BD288;" d="M475.234,403.26V105.123c0-31.535-25.656-57.191-57.191-57.191s-57.191,25.657-57.191,57.191v21.787
	c0,22.526-18.325,40.851-40.851,40.851c-22.526,0-40.851-18.325-40.851-40.851V57.191C279.149,25.657,253.493,0,221.957,0
	s-57.191,25.657-57.191,57.191v130.723h16.34V57.191c0-22.526,18.325-40.851,40.851-40.851s40.851,18.325,40.851,40.851v69.719
	c0,31.535,25.656,57.191,57.191,57.191s57.191-25.657,57.191-57.191v-21.787c0-22.526,18.325-40.851,40.851-40.851
	s40.851,18.325,40.851,40.851V403.26c-7.95,11.707-32.681,49.603-32.681,67.889c0,22.526,18.325,40.851,40.851,40.851
	c22.526,0,40.851-18.325,40.851-40.851C507.915,452.863,483.184,414.967,475.234,403.26z M467.064,495.66
	c-13.516,0-24.511-10.996-24.511-24.511c0-8.923,12.752-32.214,24.512-50.589c11.759,18.369,24.51,41.656,24.51,50.589
	C491.574,484.664,480.58,495.66,467.064,495.66z"/>
<path style="fill:#B8DE6F;" d="M172.936,166.128c93.249,0,168.851,75.602,168.851,168.851S266.186,503.83,172.936,503.83
	S4.085,428.228,4.085,334.979S79.687,166.128,172.936,166.128z"/>
<circle style="fill:#D9F2A7;" cx="172.936" cy="334.979" r="125.277"/>
<g>
	<circle style="fill:#B8DE6F;" cx="240.095" cy="368.749" r="8.17"/>
	<circle style="fill:#B8DE6F;" cx="207.414" cy="401.43" r="8.17"/>
</g>
<g>
</g>
<g>
</g>
<g>
</g>
<g>
</g>
<g>
</g>
<g>
</g>
<g>
</g>
<g>
</g>
<g>
</g>
<g>
</g>
<g>
</g>
<g>
</g>
<g>
</g>
<g>
</g>
<g>
</g>
</svg>
